<?xml version="1.0" encoding="UTF-8" standalone="no"?>
<!-- Created with Inkscape (http://www.inkscape.org/) -->

<svg
   xmlns:dc="http://purl.org/dc/elements/1.1/"
   xmlns:cc="http://creativecommons.org/ns#"
   xmlns:rdf="http://www.w3.org/1999/02/22-rdf-syntax-ns#"
   xmlns:svg="http://www.w3.org/2000/svg"
   xmlns="http://www.w3.org/2000/svg"
   xmlns:sodipodi="http://sodipodi.sourceforge.net/DTD/sodipodi-0.dtd"
   xmlns:inkscape="http://www.inkscape.org/namespaces/inkscape"
   version="1.1"
   id="svg3713"
   width="900"
   height="900"
   viewBox="0 0 900 900"
   sodipodi:docname="panda_logo.svg"
   inkscape:version="0.92.4 (5da689c313, 2019-01-14)">
  <metadata
     id="metadata3719">
    <rdf:RDF>
      <cc:Work
         rdf:about="">
        <dc:format>image/svg+xml</dc:format>
        <dc:type
           rdf:resource="http://purl.org/dc/dcmitype/StillImage" />
        <dc:title></dc:title>
      </cc:Work>
    </rdf:RDF>
  </metadata>
  <defs
     id="defs3717" />
  <sodipodi:namedview
     pagecolor="#ffffff"
     bordercolor="#666666"
     borderopacity="1"
     objecttolerance="10"
     gridtolerance="10"
     guidetolerance="10"
     inkscape:pageopacity="0"
     inkscape:pageshadow="2"
     inkscape:window-width="1366"
     inkscape:window-height="705"
     id="namedview3715"
     showgrid="false"
     inkscape:zoom="0.42112137"
     inkscape:cx="455.80703"
     inkscape:cy="490.80372"
     inkscape:window-x="-8"
     inkscape:window-y="-8"
     inkscape:window-maximized="1"
     inkscape:current-layer="svg3713" />
  <path
     style="fill:#000000;stroke-width:1.33333337"
     d="m 178.16636,582.04119 c -7.311,-2.606 -13.70416,-9.35463 -17.02585,-17.97255 -4.03516,-10.46892 -4.94878,-38.92525 -1.92858,-60.06864 5.72116,-40.05165 16.33219,-69.51276 30.65699,-85.11791 18.66836,-20.33693 51.53641,-14.66633 60.14483,10.37656 4.75613,13.83616 3.67124,40.13991 -2.05591,49.84672 -3.55451,6.02443 -11.13467,11.15282 -20.81853,14.08486 -15.58684,4.71932 -26.26098,14.89398 -30.4393,29.01498 -2.77102,9.36492 -2.69232,10.15363 2.72956,27.35272 5.40924,17.15902 5.35579,22.08471 -0.30373,27.99198 -3.18448,3.32388 -10.46236,6.53728 -14.45917,6.38413 -0.73334,-0.0281 -3.65848,-0.87988 -6.50031,-1.89285 z m 13.81892,-4.03358 c 4.99211,-2.58152 8.01472,-6.985 8.01472,-11.67622 0,-2.05807 -1.8,-9.20402 -4,-15.8799 -4.74348,-14.39402 -5.09039,-23.43713 -1.28887,-33.5976 4.80576,-12.84454 17.73808,-24.19288 30.6222,-26.87152 9.56871,-1.98936 16.40211,-7.12788 20.90618,-15.72086 3.43485,-6.55314 4.11657,-31.799 1.11624,-41.33784 -4.65595,-14.80248 -15.04124,-22.68276 -30.02242,-22.78079 -10.90745,-0.0713 -17.41525,3.13876 -25.8041,12.72848 -10.9185,12.48147 -17.99684,28.94787 -24.05499,55.95923 -4.97825,22.19644 -7.88652,48.82128 -6.8266,62.4968 2.22525,28.71098 15.86816,44.67981 31.33764,36.68022 z m 5.33745,-96.03972 c -2.07033,-6.27318 1.47726,-17.83897 7.39708,-24.11581 3.73471,-3.95995 5.08234,-4.51875 10.89764,-4.51875 7.94572,0 11.04922,2.67355 11.04922,9.51854 0,3.43102 -1.13039,5.80816 -4.33334,9.11277 -4.88356,5.03855 -19.1927,14.70203 -21.76997,14.70203 -0.92944,0 -2.38772,-2.11446 -3.24063,-4.69878 z m 18.18536,-9.10406 c 7.43894,-6.50103 9.03376,-9.36002 7.167,-12.84808 -3.08254,-5.7598 -12.25425,-4.49383 -17.13861,2.36564 -3.40533,4.78233 -6.29229,15.05913 -5.10189,18.16128 0.82386,2.14696 1.13272,2.13913 5.03701,-0.12774 2.28763,-1.32821 6.80405,-4.72621 10.03649,-7.5511 z m 525.44055,62.80284 c -2.51601,-2.38334 -6.47987,-7.7193 -8.80856,-11.8577 -5.73804,-10.19721 -9.07857,-11.39868 -36.2908,-13.05237 -14.08828,-0.85615 -17.76661,-1.54548 -22.66667,-4.2478 -7.17936,-3.95932 -13.22878,-13.50937 -17.89117,-28.24429 -8.68656,-27.45278 -0.65236,-47.25162 21.82599,-53.78624 15.22558,-4.4262 28.43022,0.80833 45.59576,18.07489 20.61645,20.73783 43.16389,60.13804 43.95922,76.816 0.50876,10.66828 0.005,12.8244 -3.90318,16.7334 -3.26956,3.26957 -4.97266,3.89744 -10.57172,3.89744 -5.70272,0 -7.34023,-0.6308 -11.24887,-4.33333 z m 19.15392,-2.23078 c 2.75759,-2.75758 3.89281,-5.19476 3.88161,-8.33333 -0.0881,-24.72371 -38.4671,-83.27252 -61.91181,-94.44939 -14.22993,-6.78388 -27.54831,-4.67074 -38.47857,6.10512 -9.68154,9.54478 -11.06178,21.9706 -4.58106,41.24171 4.48318,13.3312 8.40288,19.89903 14.32526,24.00323 5.0138,3.47456 6.99525,3.93798 20.44033,4.78056 15.63707,0.97994 30.62195,3.28969 34.37564,5.29861 1.22312,0.65459 4.17301,4.65384 6.55532,8.88721 8.96345,15.92814 17.66137,20.1982 25.39328,12.46628 z M 704,495.07377 c -1.1,-0.42557 -5.15936,-1.93788 -9.0208,-3.36068 -14.27393,-5.25944 -18.86721,-13.27962 -11.70647,-20.44036 4.02071,-4.02072 11.56667,-4.37753 17.39394,-0.82248 6.26994,3.82512 11.76004,12.72616 11.88933,19.27606 0.0997,5.05657 -0.21657,5.63226 -3.22267,5.86413 C 707.5,495.73185 705.1,495.49937 704,495.07377 Z m 4.90484,-6.53105 c -0.98457,-6.06716 -6.55461,-13.43427 -12.18849,-16.12088 -9.52276,-4.54109 -16.93496,5.64299 -8.62352,11.84836 2.64022,1.97123 18.16626,8.5948 21.08162,8.99367 0.2793,0.0381 0.15796,-2.08631 -0.26961,-4.72115 z m -92.26296,34.98449 c -6.88349,-3.08821 -12.30215,-10.37614 -15.86225,-21.33426 -0.71316,-2.19511 -1.35918,-1.93416 -5.73596,2.31701 -7.15642,6.951 -15.44616,10.44061 -26.57104,11.18519 -30.27474,2.02626 -50.29347,-17.84771 -52.07171,-51.69515 -1.18624,-22.57923 6.02056,-44.54975 18.8978,-57.61151 8.44811,-8.56913 14.88399,-10.78286 29.58564,-10.17646 12.9094,0.53248 22.41611,4.11633 27.26244,10.27744 3.01631,3.83461 2.99492,4.31618 0.6178,-13.90758 -4.6916,-35.96738 -5.71564,-69.84989 -2.30249,-76.18276 2.64452,-4.90673 8.16665,-8.84357 12.40472,-8.84357 8.9817,0 12.5132,8.55263 21.03302,50.93808 12.79427,63.65037 18.65456,143.54233 11.53862,157.30305 -4.10748,7.94299 -11.52414,10.99326 -18.79659,7.73052 z m 12.33124,-5.19388 c 4.31535,-4.67149 5.67807,-12.20077 5.68611,-31.41681 0.0188,-44.91197 -8.98228,-112.32411 -21.20434,-158.80608 -4.38498,-16.67663 -9.66493,-20.88383 -16.821,-13.40343 l -3.96722,4.14703 0.11293,23.57299 c 0.0785,16.3975 1.03473,30.47257 3.14131,46.23964 3.70194,27.70792 3.8457,30.22996 1.7649,30.96265 -0.90614,0.31908 -2.40328,-1.11699 -3.32697,-3.19125 -2.17624,-4.88703 -9.22075,-11.59418 -15.11511,-14.39123 -7.23417,-3.43284 -22.00249,-4.21649 -29.01218,-1.53947 -12.82259,4.897 -25.31592,22.91115 -28.95364,41.74831 -2.32447,12.03676 -1.05836,32.61659 2.58472,42.01316 3.40146,8.77336 12.97056,20.07492 20.0598,23.69157 7.6874,3.92183 20.49912,5.78944 28.27512,4.12179 9.29156,-1.99268 14.11641,-4.70783 22.00557,-12.38341 7.19909,-7.00423 9.79688,-7.32646 9.79688,-1.21523 0,9.48443 10.9666,22.84977 18.7488,22.84977 1.89917,0 4.70011,-1.35 6.22432,-3 z m -59.53124,-36.39389 c -12.58761,-11.37215 -12.55183,-35.20573 0.07,-46.60877 5.18788,-4.68694 5.89949,-4.93246 12.66929,-4.37106 5.11644,0.4243 8.12195,1.48662 10.48398,3.70562 12.33366,11.58686 12.26385,37.05612 -0.13147,47.9393 -3.82683,3.36 -5.77013,4.06214 -11.24295,4.06214 -5.70498,0 -7.33721,-0.65119 -11.84889,-4.72723 z m 22.14455,-3.82871 c 17.11196,-18.35936 -1.38056,-56.96189 -19.36488,-40.42354 -10.34442,9.51268 -11.07667,31.65821 -1.33798,40.46405 7.93819,7.1778 13.98603,7.16596 20.70286,-0.0405 z m -137.2007,39.55594 c -3.59014,-4.13155 -3.73468,-8.86707 -1.05292,-34.49956 3.3201,-31.73374 3.39287,-42.37283 0.33179,-48.50044 -4.02975,-8.06664 -11.68679,-6.27063 -16.99028,3.98518 -1.53524,2.96884 -2.93191,11.08028 -4.11868,23.92015 -2.48053,26.83707 -3.08433,30.60975 -5.94411,37.13969 -3.67913,8.40088 -14.24981,12.26111 -20.87258,7.62234 -10.84123,-7.59348 -19.69519,-90.49434 -11.70727,-109.61674 4.47795,-10.71982 13.50768,-16.07308 19.96971,-11.839 3.97077,2.60176 7.08896,12.42215 8.24614,25.97032 l 0.84119,9.84863 2.348,-4.51529 c 3.17264,-6.10108 12.57784,-14.94623 19.89661,-18.71184 3.97712,-2.04628 9.01466,-3.25746 14.9417,-3.59243 19.64448,-1.11023 30.7227,10.81004 38.21748,41.12232 7.52572,30.43739 3.50464,54.54729 -11.88136,71.23912 -9.8035,10.63555 -27.16343,16.25289 -32.22542,10.42755 z m 22.50028,-7.21699 c 22.91542,-16.4574 27.87351,-48.00231 13.67986,-87.03559 -5.16003,-14.19034 -12.16219,-22.30504 -21.39151,-24.79022 -16.98631,-4.57395 -37.95265,9.47024 -44.35281,29.70946 -0.40582,1.28334 -1.53574,2.33334 -2.51092,2.33334 -1.28342,0 -2.19567,-4.22848 -3.3034,-15.31212 C 417.402,399.29304 413.75024,388 410.16177,388 c -4.80229,0 -8.41484,2.77561 -11.51636,8.84835 -3.1989,6.2634 -3.308,7.35061 -3.19248,31.81832 0.14739,31.21912 4.20211,60.20296 10.01659,71.60026 2.13829,4.19143 3.28595,5.0664 6.64524,5.0664 11.20704,0 14.37511,-8.13162 16.62281,-42.66666 0.45342,-6.96667 1.76052,-16.14695 2.90467,-20.40063 4.53615,-16.86441 18.52829,-22.39171 25.29064,-9.99051 1.98801,3.64572 2.3442,7.14055 2.09825,20.58764 -0.16293,8.90808 -1.21158,23.59018 -2.33034,32.62686 -3.56696,28.81174 -2.98834,31.13318 7.51856,30.1638 4.3561,-0.40191 8.15088,-1.961 12.66666,-5.20415 z m -115.57348,5.73445 c -2.79669,-1.49442 -6.8583,-5.8727 -10.20441,-11 -3.0572,-4.68461 -6.45351,-9.51378 -7.54737,-10.7315 -2.69115,-2.9959 -14.44227,-5.27475 -32.89408,-6.37902 -23.95911,-1.43388 -29.06774,-5.27002 -37.45266,-28.1238 -5.74825,-15.66729 -6.62761,-28.83612 -2.55738,-38.29764 3.32342,-7.72549 10.72949,-15.1909 18.14317,-18.28853 8.02267,-3.35209 22.01813,-2.66764 30.8458,1.50852 16.30921,7.71549 38.4906,34.22476 53.48433,63.91984 13.51762,26.77161 14.24426,42.92961 2.15767,47.97971 -5.96944,2.49418 -8.39896,2.39204 -13.97507,-0.58758 z m 15.41474,-4.7902 c 8.24757,-8.24756 0.53624,-32.28497 -20.76484,-64.72726 -10.04194,-15.29423 -28.62208,-34.26182 -37.89007,-38.68016 -14.36168,-6.8467 -29.12417,-4.01715 -39.28884,7.53053 C 273.31809,421.72609 272,425.76585 272,436.30755 c 0,13.50333 8.15044,35.32437 15.46856,41.41374 6.54647,5.44728 9.08341,6.18303 23.46505,6.80514 14.6508,0.63374 29.36956,2.82842 33.38638,4.97816 1.31444,0.70346 4.28572,4.63828 6.60286,8.74402 8.92895,15.82123 18.33624,20.61351 25.80442,13.14532 z m -54.36315,-38.24408 c -8.52205,-1.87856 -22.00679,-8.69832 -24.38943,-12.33468 -2.43042,-3.70929 -2.03504,-7.7347 1.19326,-12.1485 C 300.70721,446.56213 302.6574,446 308.4192,446 c 8.33661,0 11.03989,1.77856 17.11589,11.26104 3.62972,5.66472 5.24208,15.14297 2.79824,16.44956 -0.55,0.29405 -3.23614,0.0417 -5.96921,-0.56075 z m 2.76031,-9.03264 c -3.37842,-8.88592 -13.17578,-16.93402 -18.38794,-15.10492 -3.5257,1.23728 -6.73649,4.62303 -6.73649,7.10356 0,3.177 6.66435,7.73515 16.55353,11.32195 8.87388,3.21856 10.77678,2.48132 8.5709,-3.32059 z M 254,507.88939 c -5.54144,-4.08735 -10.38707,-10.29088 -9.61329,-12.30728 0.85596,-2.23059 35.54696,-5.51511 37.5106,-3.55147 1.95834,1.95835 -2.66988,9.89181 -8.25658,14.15299 -6.384,4.8693 -14.40706,5.5661 -19.64073,1.70576 z m 16.36783,-3.59084 c 1.66897,-1.09108 4.30968,-3.7746 5.86822,-5.96339 l 2.83375,-3.97963 -9.86824,0.87724 c -5.42752,0.48247 -12.10779,1.20346 -14.84503,1.60218 -4.9719,0.72422 -4.97453,0.72805 -2.66666,3.89278 3.03522,4.16215 9.62912,7.40047 12.9768,6.37302 1.46666,-0.45014 4.03218,-1.71114 5.70116,-2.8022 z M 159.10187,431.86788 c -7.29704,-1.34719 -12.14646,-3.97767 -17.36763,-9.42079 -12.21914,-12.73857 -11.53887,-34.73313 1.42633,-46.1166 6.81219,-5.9811 13.1234,-8.33049 22.37842,-8.33049 9.2809,0 14.82337,2.05827 21.62609,8.03113 5.48419,4.81518 8.02584,9.03748 9.46705,15.72708 0.89686,4.16288 0.47538,4.85739 -7.11796,11.72896 -4.43918,4.01724 -11.15644,11.92604 -14.92721,17.57512 -3.77079,5.64907 -7.54544,10.62247 -8.38813,11.052 -0.84268,0.42954 -4.03632,0.31864 -7.09696,-0.24641 z m 10.00809,-9.6956 c 2.38703,-3.93859 8.80885,-11.88859 14.27071,-17.66667 5.46186,-5.77809 9.93561,-10.97952 9.94166,-11.55873 0.0233,-2.22928 -5.20817,-11.08236 -8.19257,-13.86412 -4.30265,-4.01049 -14.27367,-8.35147 -19.26413,-8.38681 -9.84971,-0.0697 -21.19924,6.75785 -26.06823,15.68206 -2.36695,4.33831 -3.11431,7.75707 -3.06339,14.01344 0.10107,12.42559 5.85182,21.27699 17.16043,26.4131 8.62168,3.91576 10.35461,3.38818 15.21552,-4.63227 z m 174.59917,-14.05444 c -4.14072,-5.06852 -12.06506,-12.71852 -17.60966,-17 -9.79044,-7.56007 -10.05784,-7.91905 -9.27462,-12.45117 3.20502,-18.54559 23.52922,-30.6624 42.09936,-25.09864 6.84603,2.05112 16.82307,10.93002 19.9045,17.71369 5.64414,12.42545 1.4258,30.80639 -8.87264,38.66139 -4.3417,3.31158 -13.81862,7.39022 -17.17151,7.39022 -0.85076,0 -4.93471,-4.14697 -9.07543,-9.21549 z m 18.01066,2.39584 c 17.29889,-8.68912 21.64741,-29.42677 9.21598,-43.95009 -14.08221,-16.4519 -40.08841,-12.98171 -48.42269,6.46137 -3.373,7.86891 -3.25663,8.45912 2.42693,12.30837 7.42643,5.02962 19.46835,16.52192 23.67974,22.59896 4.30209,6.20792 5.43546,6.43126 13.10004,2.58139 z"
     id="path3829"
     inkscape:connector-curvature="0" />
  <path
     style="fill:#e3dbdb;stroke-width:2.37461233"
     d="m 173.38093,572.94156 c -10.51186,-11.75254 -13.60147,-29.46266 -10.30759,-59.08477 5.08404,-45.72128 16.71053,-78.2542 33.33304,-93.27165 8.10174,-7.31943 11.06569,-8.52357 20.98056,-8.52357 21.35003,0 33.05922,17.45688 30.51669,45.49642 -1.69226,18.66254 -6.75192,25.37869 -24.21512,32.14295 -16.17285,6.26445 -21.50529,10.62764 -27.61237,22.5934 -5.5571,10.88818 -5.67866,21.59314 -0.46728,41.15082 3.86437,14.50249 3.84931,15.32021 -0.36803,19.98031 -5.81138,6.4215 -15.88288,6.19855 -21.8599,-0.48391 z m 34.88624,-88.81848 c 22.98435,-15.3696 26.12149,-31.6931 6.09096,-31.6931 -10.6425,0 -21.63815,20.41498 -17.21039,31.95353 1.78769,4.65866 3.83491,4.61071 11.11943,-0.26043 z"
     id="path3831"
     inkscape:connector-curvature="0" />
  <path
     style="fill:#e3dbdb;stroke-width:2.37461233"
     d="m 359.34596,506.19479 c -4.11402,-4.38632 -9.08871,-10.35263 -11.05488,-13.25847 -2.9103,-4.30121 -7.10386,-5.71586 -22.55882,-7.60996 -32.24275,-3.95157 -34.95993,-4.86434 -40.93214,-13.75029 -7.60211,-11.31106 -13.26776,-32.03175 -11.43284,-41.81274 1.909,-10.17584 13.46016,-21.8397 23.49259,-23.7218 19.66838,-3.68981 48.23858,21.22342 68.5494,59.77511 13.06968,24.80737 16.22278,38.43211 10.27144,44.38346 -5.59528,5.59528 -7.8483,5.04283 -16.33475,-4.00531 z m -30.03885,-39.33494 c 0,-10.40073 -10.4031,-21.5537 -20.10453,-21.5537 -16.91468,0 -17.78641,14.86784 -1.35747,23.15247 15.16996,7.64976 21.462,7.18105 21.462,-1.59877 z"
     id="path3833"
     inkscape:connector-curvature="0" />
  <path
     style="fill:#e3dbdb;stroke-width:1.18730617"
     d="m 259.50921,505.93324 c -2.10571,-0.76621 -8.31114,-6.38453 -8.31114,-7.5248 0,-0.78974 25.13815,-3.70379 25.84586,-2.99608 0.80526,0.80526 -6.13506,7.9783 -9.30604,9.61808 -3.49606,1.80789 -5.22118,1.99715 -8.22868,0.9028 z"
     id="path3837"
     inkscape:connector-curvature="0" />
  <path
     style="fill:#e3dbdb;stroke-width:1.18730617"
     d="m 151.45163,424.5478 c -9.7695,-5.85567 -14.24533,-13.99405 -14.20226,-25.8239 0.0374,-10.26985 7.13631,-19.99623 18.29293,-25.06355 6.58618,-2.99143 13.14038,-2.77295 20.56929,0.68567 6.95203,3.23661 11.29195,7.36291 14.64892,13.92785 l 2.24548,4.3913 -10.21496,11.63733 c -5.61823,6.40053 -11.85768,14.04163 -13.86545,16.98021 -2.00777,2.93859 -4.22004,5.73541 -4.91616,6.21518 -2.49757,1.72133 -6.22501,0.84568 -12.55779,-2.95009 z"
     id="path3839"
     inkscape:connector-curvature="0" />
  <path
     style="fill:#e3dbdb;stroke-width:1.18730617"
     d="m 343.56212,401.69034 c -5.95357,-6.24678 -13.40955,-13.25524 -16.56883,-15.57437 -6.70458,-4.92162 -7.01456,-6.70174 -2.5844,-14.84141 5.5427,-10.18376 13.84963,-14.66077 25.79161,-13.90036 14.99612,0.95488 25.68812,11.60267 26.63851,26.52839 0.41146,6.46184 0.0263,8.3137 -2.81466,13.53352 -3.50249,6.43523 -8.57496,10.98975 -15.429,13.85355 l -4.20856,1.75845 z"
     id="path3841"
     inkscape:connector-curvature="0" />
  <path
     style="fill:#e3dbdb;stroke-width:1.18730617"
     d="m 456.83949,513.65513 c -1.8995,-1.8995 -1.79568,-9.27121 0.40891,-29.03512 2.71622,-24.35054 2.79564,-47.46489 0.17986,-52.34353 -4.57061,-8.52457 -12.63806,-9.50208 -19.55169,-2.36902 -5.94471,6.13338 -8.48771,16.10781 -10.3634,40.64846 -1.48222,19.39259 -4.92326,31.32456 -9.54512,33.09813 -3.59835,1.38082 -8.48289,0.74837 -10.33139,-1.33769 -6.51297,-7.35002 -11.58439,-41.80775 -11.58625,-78.72274 -9.5e-4,-18.87027 0.12421,-19.90551 3.13776,-25.95291 3.80041,-7.62643 9.14569,-10.79955 12.54801,-7.44888 2.50761,2.46955 5.20144,12.91815 6.864,26.62357 0.69214,5.7057 1.56855,11.18215 1.94758,12.16989 1.38202,3.60149 3.85224,1.62694 7.37061,-5.89166 6.57914,-14.05928 19.13716,-23.26961 32.93708,-24.15677 16.19601,-1.04119 26.07537,10.38101 33.17045,38.35063 7.43079,29.29305 3.62639,51.77908 -11.36436,67.16952 -8.69714,8.92901 -21.52258,13.49759 -25.82205,9.19812 z"
     id="path3843"
     inkscape:connector-curvature="0" />
  <path
     style="fill:#e3dbdb;stroke-width:1.18730617"
     d="m 616.76712,518.31339 c -5.20743,-3.48903 -11.75182,-13.24464 -11.75182,-17.51824 0,-4.46902 -1.10827,-7.08676 -3.00033,-7.08676 -0.85744,0 -4.941,2.86904 -9.0746,6.37564 -4.13359,3.50662 -9.1934,7.23002 -11.24403,8.27424 -8.8466,4.50488 -25.07572,4.31032 -35.79003,-0.42908 -6.8574,-3.0333 -15.77206,-12.29662 -19.76861,-20.54175 -6.09412,-12.57252 -7.05044,-38.97434 -1.93943,-53.54314 4.90107,-13.97038 15.36946,-27.5623 24.41999,-31.70637 5.59386,-2.56132 19.74052,-2.98857 26.99437,-0.81526 5.31974,1.59383 15.54496,10.22493 18.20311,15.36522 0.96915,1.87413 2.5498,3.40752 3.51256,3.40752 2.42245,0 2.2673,-7.04437 -0.65373,-29.68266 -1.31232,-10.17065 -2.71454,-30.18085 -3.13455,-44.73104 l -0.75997,-26.3278 3.65168,-3.65168 c 8.90154,-8.90154 13.22635,-2.73964 20.35347,28.99923 11.16216,49.7079 17.28456,102.87871 16.54233,143.66405 -0.35797,19.67083 -0.70165,23.03987 -2.68455,26.31639 -2.02423,3.34483 -6.21798,6.33453 -8.88567,6.33453 -0.52573,0 -2.77131,-1.21637 -4.99019,-2.70304 z M 586.0742,486.58455 c 3.31607,0 10.72612,-7.03871 13.12442,-12.46671 4.80454,-10.87398 3.88006,-25.46332 -2.20855,-34.85334 -3.9264,-6.05542 -8.83285,-8.48334 -17.1435,-8.48334 -5.8416,0 -6.78862,0.39267 -10.73818,4.4524 -9.47585,9.74017 -12.14449,25.50563 -6.38103,37.69697 4.48287,9.48253 13.4134,15.94118 19.52941,14.12387 0.86968,-0.25841 2.58752,-0.46985 3.81743,-0.46985 z"
     id="path3845"
     inkscape:connector-curvature="0" />
  <path
     style="fill:#e3dbdb;stroke-width:1.18730617"
     d="m 744.78566,532.96015 c -2.18698,-1.92019 -6.58039,-7.53668 -9.76314,-12.48109 -4.81191,-7.47533 -6.49927,-9.17375 -10.01584,-10.08147 -5.97397,-1.54205 -20.19712,-3.40325 -32.72437,-4.28223 -18.49708,-1.29785 -24.53052,-6.14659 -31.51937,-25.33039 -4.36792,-11.98956 -5.8365,-25.72689 -3.50541,-32.79015 1.87545,-5.68269 9.6486,-14.23478 15.97451,-17.5753 6.59103,-3.48052 19.30244,-3.51962 26.76776,-0.0823 23.02242,10.6003 60.55429,65.3785 62.64562,91.43202 0.56647,7.05703 0.41564,7.607 -3.03172,11.05436 -4.76845,4.76845 -9.50298,4.81206 -14.82804,0.13659 z m -32.36808,-43.67151 c -0.0388,-4.91136 -0.77941,-7.23349 -3.56192,-11.16752 -4.91711,-6.95203 -8.95061,-9.58976 -15.64837,-10.23333 -4.99501,-0.47995 -6.30001,-0.11978 -9.5869,2.64595 -4.71634,3.96855 -5.16605,9.61253 -1.13336,14.22405 3.70437,4.23608 20.5475,11.43874 25.82391,11.04313 l 4.15557,-0.31157 z"
     id="path3847"
     inkscape:connector-curvature="0" />
</svg>
